# xmcd
#
# Track frame offsets:
#	150
#	11849
#	32038
#	45197
#	57831
#	74687
#	93574
#	109216
#	129976
#	148260
#	166195
#	182034
#	197028
#	210057
#	229611
#	243749
#
# Disc length: 3468 seconds
#
# Revision: 1
# Processed by: cddbd v1.5.2PL0 Copyright (c) Steve Scherf et al.
# Submitted via: dBpowerAMP V4.0
#
DISCID=dd0d8a10
DTITLE=Erwin Keiles and John Thirkell - Late Night Jazz
DYEAR=2000
DGENRE=Jazz
TTITLE0=How High The Moon
TTITLE1=Corcovado
TTITLE2=It's Only a Paper Moon
TTITLE3=The Girl From Ipanema
TTITLE4=I'm Beginning to See The Light
TTITLE5=Satin Doll
TTITLE6=Here's That Rainy Day
TTITLE7=How Long Has This Ben Going On
TTITLE8=The Look of Love
TTITLE9=The Nearness of You
TTITLE10=Route 66
TTITLE11=I Will Never Forget
TTITLE12=They Can't Take That Away From Me
TTITLE13=Cry me a River
TTITLE14=That Ole Devil Called Love
TTITLE15=Fever
EXTD=
EXTT0=
EXTT1=
EXTT2=
EXTT3=
EXTT4=
EXTT5=
EXTT6=
EXTT7=
EXTT8=
EXTT9=
EXTT10=
EXTT11=
EXTT12=
EXTT13=
EXTT14=
EXTT15=
PLAYORDER=
